<?xml version="1.0" encoding="UTF-8" standalone="no"?>
<!-- Created with Inkscape (http://www.inkscape.org/) -->

<svg
   xmlns:dc="http://purl.org/dc/elements/1.1/"
   xmlns:cc="http://creativecommons.org/ns#"
   xmlns:rdf="http://www.w3.org/1999/02/22-rdf-syntax-ns#"
   xmlns:svg="http://www.w3.org/2000/svg"
   xmlns="http://www.w3.org/2000/svg"
   xmlns:xlink="http://www.w3.org/1999/xlink"
   xmlns:sodipodi="http://sodipodi.sourceforge.net/DTD/sodipodi-0.dtd"
   xmlns:inkscape="http://www.inkscape.org/namespaces/inkscape"
   width="800"
   height="800"
   viewBox="0 0 211.66666 211.66667"
   version="1.1"
   id="svg8"
   inkscape:export-filename="D:\Utilisateurs\fanambinantsoa\Documents\QtProjects\Golem\icons\golem.png"
   inkscape:export-xdpi="61.439999"
   inkscape:export-ydpi="61.439999"
   sodipodi:docname="golem.svg"
   inkscape:version="0.92.3 (2405546, 2018-03-11)">
  <defs
     id="defs2">
    <linearGradient
       inkscape:collect="always"
       id="linearGradient869">
      <stop
         style="stop-color:#ff6600;stop-opacity:1"
         offset="0"
         id="stop865" />
      <stop
         style="stop-color:#ffcc00;stop-opacity:1"
         offset="1"
         id="stop867" />
    </linearGradient>
    <linearGradient
       inkscape:collect="always"
       xlink:href="#linearGradient869"
       id="linearGradient871"
       x1="-129.19658"
       y1="-18.264879"
       x2="-128.58929"
       y2="-217.63124"
       gradientUnits="userSpaceOnUse" />
  </defs>
  <sodipodi:namedview
     id="base"
     pagecolor="#ffffff"
     bordercolor="#666666"
     borderopacity="1.0"
     inkscape:pageopacity="0.0"
     inkscape:pageshadow="2"
     inkscape:zoom="0.45254834"
     inkscape:cx="380.18288"
     inkscape:cy="283.3173"
     inkscape:document-units="mm"
     inkscape:current-layer="layer1"
     showgrid="false"
     fit-margin-top="0"
     fit-margin-left="0"
     fit-margin-right="0"
     fit-margin-bottom="0"
     units="px"
     inkscape:window-width="1366"
     inkscape:window-height="716"
     inkscape:window-x="-8"
     inkscape:window-y="-8"
     inkscape:window-maximized="1" />
  <metadata
     id="metadata5">
    <rdf:RDF>
      <cc:Work
         rdf:about="">
        <dc:format>image/svg+xml</dc:format>
        <dc:type
           rdf:resource="http://purl.org/dc/dcmitype/StillImage" />
        <dc:title></dc:title>
      </cc:Work>
    </rdf:RDF>
  </metadata>
  <g
     inkscape:label="Calque 1"
     inkscape:groupmode="layer"
     id="layer1"
     transform="translate(-11.65888,-10.068448)">
    <circle
       style="opacity:1;fill:url(#linearGradient871);fill-opacity:1;stroke:none;stroke-width:10.0989542;stroke-linecap:square;stroke-linejoin:miter;stroke-miterlimit:4;stroke-dasharray:none;stroke-opacity:1;paint-order:normal"
       id="path855"
       cx="-117.49222"
       cy="-115.90178"
       transform="scale(-1)"
       r="105.83334" />
    <path
       style="fill:#ffffff;stroke-width:1.04811084;fill-opacity:1"
       d="m 78.336775,194.08811 c -2.206441,-0.89031 -1.482305,-5.2406 1.160564,-6.97227 2.198314,-1.44039 2.534042,-2.63799 3.04545,-10.86368 0.738597,-11.87946 3.836668,-21.54764 9.71255,-30.31018 2.576988,-3.84296 4.685387,-8.05416 4.685387,-9.35825 0,-4.28168 -4.078656,-15.6862 -7.407039,-20.71116 -4.08654,-6.1695 -11.232171,-12.51993 -17.504309,-15.55619 l -4.813531,-2.330196 -3.926237,4.558666 -3.926224,4.5587 4.687561,5.32129 c 4.070576,4.6209 4.606155,5.76854 4.0692,8.71932 -0.637424,3.50292 0.02774,4.37441 8.735074,11.45891 1.545574,1.25743 3.041623,4.60315 4.366179,9.76449 l 2.014983,7.85167 -3.366913,3.50941 c -1.851777,1.93013 -6.968125,6.76993 -11.369666,10.75506 l -8.002754,7.24573 -13.221375,-1.92423 c -7.271751,-1.05832 -13.377227,-2.1208 -13.567726,-2.36106 -0.190499,-0.24045 -3.256261,-5.13333 -6.812817,-10.87354 l -6.46647,-10.43673 v -22.74559 -22.7456 l 7.263223,-1.298034 c 9.433251,-1.685792 9.76387,-1.920692 8.270976,-5.875812 -1.047969,-2.7764 -0.905595,-3.63498 1.060674,-6.39637 1.46493,-2.05729 2.286078,-4.80632 2.313267,-7.74419 0.04011,-4.32513 0.356086,-4.78889 6.270358,-9.201135 5.991251,-4.469607 6.205125,-4.790793 5.621282,-8.441945 l -0.60694,-3.795584 12.618481,-5.96953 c 6.94015,-3.283264 12.999212,-5.965426 13.464587,-5.960397 0.465386,0.0035 2.696104,2.880267 4.957177,6.38945 l 4.111025,6.380248 3.216308,-5.341342 3.216354,-5.341308 25.688096,0.0011 25.68814,10e-4 2.94277,5.239498 c 1.61853,2.88177 3.09945,5.239533 3.29099,5.239533 0.19133,0 2.1688,-2.825797 4.39398,-6.279514 2.22521,-3.453717 4.38459,-6.283629 4.79871,-6.288669 0.41405,-0.0035 6.47327,2.676347 13.46488,5.958605 l 12.71198,5.967796 -0.6072,3.797329 c -0.58419,3.653361 -0.37118,3.973483 5.62097,8.443726 5.9375,4.429559 6.2302,4.861979 6.27037,9.264009 0.0277,3.20946 0.80757,5.62105 2.55211,7.90831 2.25323,2.9541 2.36421,3.55385 1.08525,5.86353 -0.7836,1.41503 -1.44142,2.887 -1.46182,3.27102 -0.0198,0.38385 3.73604,1.51343 8.34774,2.509832 l 8.38486,1.811704 v 22.68914 22.68919 l -6.46645,10.43673 c -3.55655,5.74021 -6.62233,10.63329 -6.81284,10.87354 -0.19053,0.24006 -6.29595,1.30274 -13.5677,2.36106 l -13.22137,1.92423 -8.00279,-7.24573 c -14.251,-12.9028 -14.91683,-13.76768 -13.81431,-17.94359 0.52845,-2.00164 1.46167,-5.57253 2.07378,-7.93537 0.86382,-3.33431 2.41565,-5.32874 6.93196,-8.90895 5.41644,-4.29375 5.77527,-4.85171 5.18677,-8.06494 -0.55546,-3.03274 -0.0539,-4.09514 4.12841,-8.74705 l 4.76069,-5.29499 -3.78279,-4.61638 c -2.0805,-2.53899 -4.01365,-4.616376 -4.29586,-4.616376 -0.28205,0 -3.28496,1.477392 -6.67284,3.283106 -11.44017,6.09757 -21.16766,19.86928 -22.56697,31.94931 -0.55233,4.76825 -0.27176,5.59725 4.08706,12.07078 6.34384,9.42196 9.20561,18.10213 9.91267,30.06688 0.51886,8.77981 0.82721,9.9307 3.05089,11.38773 2.82473,1.85083 3.31459,6.07336 0.81584,7.03222 -3.41169,1.30918 -14.62326,0.65176 -16.97492,-0.99542 -2.44079,-1.70961 -3.18648,-6.52508 -1.30214,-8.40941 1.63066,-1.63066 -0.74073,-8.42567 -4.39157,-12.58376 -6.68836,-7.61758 -17.48126,-10.01139 -25.86177,-5.73597 -7.41582,3.78326 -14.696577,15.25259 -11.629406,18.31973 1.884296,1.88433 1.138656,6.6998 -1.302187,8.40941 -2.250288,1.57618 -14.144517,2.21987 -17.322642,0.93745 z m 54.033605,-91.13152 c 3.05405,-0.61081 3.25667,-0.98175 4.4366,-8.122866 0.68001,-4.11553 2.17962,-9.18747 3.3325,-11.27094 1.66635,-3.01151 1.85804,-4.23293 0.93495,-5.95774 -0.63864,-1.19328 -1.16115,-3.70059 -1.16115,-5.571819 0,-4.282784 -7.52948,-16.175164 -10.79551,-17.050899 -2.98975,-0.801658 -19.43988,-0.801658 -22.42959,0 -3.26607,0.875735 -10.79555,12.768115 -10.79555,17.050899 0,1.871229 -0.522505,4.378539 -1.161119,5.571819 -0.923189,1.72497 -0.731268,2.94595 0.936345,5.95774 1.153628,2.08347 2.408864,5.91055 2.789394,8.50461 1.39259,9.492616 1.71186,10.342886 4.05533,10.798636 3.6986,0.71927 26.3704,0.78803 29.8578,0.0908 z m -26.71497,-2.1484 c -3.20395,-0.45929 -3.36649,-0.71923 -4.0297,-6.443886 -0.38029,-3.28092 -1.64907,-8.0056 -2.82002,-10.49927 -1.733248,-3.69136 -1.909609,-5.01541 -0.94881,-7.12409 0.64903,-1.42454 1.18008,-3.794032 1.18008,-5.265517 0,-1.47153 1.53285,-5.175686 3.40637,-8.231481 3.68444,-6.009586 5.45975,-6.789256 15.45963,-6.789256 10.17548,0 11.81777,0.741718 16.02308,7.236539 2.14004,3.305205 3.89101,7.299761 3.89101,8.876824 0,1.577051 0.49842,3.798621 1.10755,4.936841 0.85819,1.60353 0.64353,2.82696 -0.95338,5.43369 -1.1335,1.85032 -2.38465,6.00372 -2.78035,9.22982 -0.39575,3.22609 -1.10895,6.49584 -1.58503,7.266172 -0.88731,1.435684 -20.71889,2.410294 -27.95043,1.373614 z m 9.62726,-24.362446 c 0,-0.844 -2.40375,-2.28918 -5.63377,-3.387115 -7.56371,-2.570965 -9.5188,-1.406055 -5.27864,3.145205 1.71911,1.84528 3.1252,2.28138 6.55071,2.03182 2.8958,-0.21075 4.3617,-0.81252 4.3617,-1.78991 z m 16.24571,-0.0999 c 4.48677,-4.486732 2.09723,-5.835137 -5.33967,-3.0131 -6.5813,2.49732 -6.61672,2.52208 -5.70858,3.99147 1.22101,1.97561 8.76207,1.30784 11.04825,-0.97837 z"
       id="path837"
       inkscape:connector-curvature="0" />
  </g>
</svg>
